<svg version="1.1" viewBox="0.0 0.0 474.8293963254593 402.7217847769029" fill="none" stroke="none" stroke-linecap="square" stroke-miterlimit="10" xmlns:xlink="http://www.w3.org/1999/xlink" xmlns="http://www.w3.org/2000/svg"><clipPath id="p.0"><path d="m0 0l474.8294 0l0 402.72177l-474.8294 0l0 -402.72177z" clip-rule="nonzero"/></clipPath><g clip-path="url(#p.0)"><path fill="#000000" fill-opacity="0.0" d="m0 0l474.8294 0l0 402.72177l-474.8294 0z" fill-rule="evenodd"/><path fill="#000000" fill-opacity="0.0" d="m115.649605 209.89635l0 0c0 -68.5094 59.246483 -124.04724 132.33072 -124.04724l0 0c73.08423 0 132.33072 55.53784 132.33072 124.04724l0 0c0 68.509415 -59.24649 124.04726 -132.33072 124.04726l0 0c-73.08423 0 -132.33072 -55.53784 -132.33072 -124.04726z" fill-rule="evenodd"/><path stroke="#6fa8dc" stroke-width="24.0" stroke-linejoin="round" stroke-linecap="butt" d="m115.649605 209.89635l0 0c0 -68.5094 59.246483 -124.04724 132.33072 -124.04724l0 0c73.08423 0 132.33072 55.53784 132.33072 124.04724l0 0c0 68.509415 -59.24649 124.04726 -132.33072 124.04726l0 0c-73.08423 0 -132.33072 -55.53784 -132.33072 -124.04726z" fill-rule="evenodd"/><path fill="#000000" fill-opacity="0.0" d="m76.92519 69.602234l171.05511 188.50394l171.05511 -188.50394z" fill-rule="evenodd"/><path stroke="#6fa8dc" stroke-width="24.0" stroke-linejoin="round" stroke-linecap="butt" d="m76.92519 69.602234l171.05511 188.50394l171.05511 -188.50394z" fill-rule="evenodd"/><path fill="#3c78d8" d="m144.84125 220.04861l0 0c0 -10.010712 7.515976 -18.125992 16.7874 -18.125992l0 0c4.452301 0 8.722244 1.9096985 11.870483 5.308975c3.1482544 3.399292 4.916916 8.009705 4.916916 12.817017l0 0c0 10.010696 -7.515976 18.125977 -16.7874 18.125977l0 0c-9.271423 0 -16.7874 -8.11528 -16.7874 -18.125977z" fill-rule="evenodd"/><path fill="#000000" fill-opacity="0.0" d="m77.06887 70.54698l-0.4409485 74.36221" fill-rule="evenodd"/><path stroke="#6fa8dc" stroke-width="24.0" stroke-linejoin="round" stroke-linecap="butt" d="m77.06887 70.54698l-0.4409485 74.36221" fill-rule="evenodd"/><path fill="#6fa8dc" d="m55.793964 150.09566l0 0c0 -11.576233 9.426693 -20.960632 21.055119 -20.960632l0 0c5.58416 0 10.939613 2.2083435 14.888214 6.139221c3.9486008 3.930893 6.1669006 9.262299 6.1669006 14.821411l0 0c0 11.576233 -9.426697 20.960632 -21.055115 20.960632l0 0c-11.628426 0 -21.055119 -9.384399 -21.055119 -20.960632z" fill-rule="evenodd"/><path fill="#6fa8dc" d="m85.16929 68.77821l159.52231 2.380577l-107.14174 65.475075z" fill-rule="evenodd"/><path fill="#6fa8dc" d="m260.6706 68.77821l155.45837 3.635765l-59.593933 64.21757z" fill-rule="evenodd"/><path fill="#3c78d8" d="m321.61255 220.04941l0 0c0 -10.010712 7.515991 -18.125992 16.787415 -18.125992l0 0c4.452301 0 8.722229 1.9096985 11.870483 5.308975c3.1482544 3.399292 4.9169006 8.009705 4.9169006 12.817017l0 0c0 10.010696 -7.5159607 18.125977 -16.787384 18.125977l0 0c-9.271423 0 -16.787415 -8.11528 -16.787415 -18.125977z" fill-rule="evenodd"/><path fill="#6fa8dc" d="m150.50262 100.40026l98.112854 109.43307l0 57.54857l-124.52755 -139.62206z" fill-rule="evenodd"/><path fill="#6fa8dc" d="m346.3835 100.40062l-98.112854 109.433075l0 57.54854l124.52756 -139.62204z" fill-rule="evenodd"/></g></svg>